<mxfile host="app.diagrams.net" agent="Mozilla/5.0 (Windows NT 10.0; Win64; x64) AppleWebKit/537.36 (KHTML, like Gecko) Chrome/130.0.0.0 Safari/537.36" version="24.8.3">
  <diagram name="Page-1" id="QaLkWqdw2jeKQtoyCWI4">
    <mxGraphModel dx="1050" dy="522" grid="1" gridSize="10" guides="1" tooltips="1" connect="1" arrows="1" fold="1" page="1" pageScale="1" pageWidth="850" pageHeight="1100" math="0" shadow="0">
      <root>
        <mxCell id="0" />
        <mxCell id="1" parent="0" />
        <mxCell id="qzodlNLOSOOMJ8dMWkzN-3" value="" style="edgeStyle=orthogonalEdgeStyle;rounded=0;orthogonalLoop=1;jettySize=auto;html=1;" edge="1" parent="1" source="qzodlNLOSOOMJ8dMWkzN-1" target="qzodlNLOSOOMJ8dMWkzN-2">
          <mxGeometry relative="1" as="geometry" />
        </mxCell>
        <mxCell id="qzodlNLOSOOMJ8dMWkzN-7" value="" style="edgeStyle=orthogonalEdgeStyle;rounded=0;orthogonalLoop=1;jettySize=auto;html=1;" edge="1" parent="1" source="qzodlNLOSOOMJ8dMWkzN-1" target="qzodlNLOSOOMJ8dMWkzN-6">
          <mxGeometry relative="1" as="geometry" />
        </mxCell>
        <mxCell id="qzodlNLOSOOMJ8dMWkzN-9" value="" style="edgeStyle=orthogonalEdgeStyle;rounded=0;orthogonalLoop=1;jettySize=auto;html=1;" edge="1" parent="1" source="qzodlNLOSOOMJ8dMWkzN-1" target="qzodlNLOSOOMJ8dMWkzN-8">
          <mxGeometry relative="1" as="geometry" />
        </mxCell>
        <mxCell id="qzodlNLOSOOMJ8dMWkzN-1" value="تم انشاء الطلب&lt;div&gt;&lt;br&gt;&lt;/div&gt;" style="rhombus;whiteSpace=wrap;html=1;" vertex="1" parent="1">
          <mxGeometry x="385" y="20" width="80" height="80" as="geometry" />
        </mxCell>
        <mxCell id="qzodlNLOSOOMJ8dMWkzN-11" value="" style="edgeStyle=orthogonalEdgeStyle;rounded=0;orthogonalLoop=1;jettySize=auto;html=1;" edge="1" parent="1" source="qzodlNLOSOOMJ8dMWkzN-2" target="qzodlNLOSOOMJ8dMWkzN-10">
          <mxGeometry relative="1" as="geometry" />
        </mxCell>
        <mxCell id="qzodlNLOSOOMJ8dMWkzN-13" value="" style="edgeStyle=orthogonalEdgeStyle;rounded=0;orthogonalLoop=1;jettySize=auto;html=1;" edge="1" parent="1" source="qzodlNLOSOOMJ8dMWkzN-2" target="qzodlNLOSOOMJ8dMWkzN-12">
          <mxGeometry relative="1" as="geometry" />
        </mxCell>
        <mxCell id="qzodlNLOSOOMJ8dMWkzN-2" value="تم الاإستلام من المندوب" style="rhombus;whiteSpace=wrap;html=1;" vertex="1" parent="1">
          <mxGeometry x="545" y="170" width="125" height="120" as="geometry" />
        </mxCell>
        <mxCell id="qzodlNLOSOOMJ8dMWkzN-6" value="تأخر الطلب" style="rhombus;whiteSpace=wrap;html=1;" vertex="1" parent="1">
          <mxGeometry x="385" y="180" width="80" height="80" as="geometry" />
        </mxCell>
        <mxCell id="qzodlNLOSOOMJ8dMWkzN-8" value="تم الإلغاء" style="rhombus;whiteSpace=wrap;html=1;" vertex="1" parent="1">
          <mxGeometry x="230" y="170" width="80" height="80" as="geometry" />
        </mxCell>
        <mxCell id="qzodlNLOSOOMJ8dMWkzN-14" style="edgeStyle=orthogonalEdgeStyle;rounded=0;orthogonalLoop=1;jettySize=auto;html=1;entryX=0.5;entryY=1;entryDx=0;entryDy=0;" edge="1" parent="1" source="qzodlNLOSOOMJ8dMWkzN-10" target="qzodlNLOSOOMJ8dMWkzN-6">
          <mxGeometry relative="1" as="geometry" />
        </mxCell>
        <mxCell id="qzodlNLOSOOMJ8dMWkzN-10" value="تم الاإستلام من الشركة" style="rhombus;whiteSpace=wrap;html=1;" vertex="1" parent="1">
          <mxGeometry x="545" y="370" width="125" height="120" as="geometry" />
        </mxCell>
        <mxCell id="qzodlNLOSOOMJ8dMWkzN-16" style="edgeStyle=orthogonalEdgeStyle;rounded=0;orthogonalLoop=1;jettySize=auto;html=1;exitX=0;exitY=0.5;exitDx=0;exitDy=0;entryX=1;entryY=0.5;entryDx=0;entryDy=0;" edge="1" parent="1" source="qzodlNLOSOOMJ8dMWkzN-12" target="qzodlNLOSOOMJ8dMWkzN-10">
          <mxGeometry relative="1" as="geometry" />
        </mxCell>
        <mxCell id="qzodlNLOSOOMJ8dMWkzN-12" value="تأخر الطلب" style="rhombus;whiteSpace=wrap;html=1;" vertex="1" parent="1">
          <mxGeometry x="760" y="375" width="115" height="110" as="geometry" />
        </mxCell>
      </root>
    </mxGraphModel>
  </diagram>
</mxfile>
